<svg width="67pt" height="14pt" viewBox="0 0 67 14" xmlns="http://www.w3.org/2000/svg"><g stroke-linecap="round" fill-rule="evenodd" fill="#ffffff"><path d="M 25.305 13.75 L 23.375 13.75 L 23.375 0 L 25.016 0 L 27.93 8.25 L 27.781 4.5 L 27.781 0 L 29.664 0 L 29.664 13.75 L 28.18 13.75 L 25.188 5.211 L 25.305 8.82 L 25.305 13.75 Z M 64.688 13.75 L 62.102 13.75 L 59.969 0 L 61.961 0 L 62.859 6.211 L 63.414 10.586 L 63.469 10.586 L 63.945 6.211 L 64.695 0 L 66.648 0 L 64.688 13.75 Z M 53.813 13.75 L 52 13.75 L 50.602 9.523 L 49.469 13.75 L 47.445 13.75 L 49.563 6.375 L 47.453 0 L 49.219 0 L 50.586 4.086 L 51.688 0 L 53.648 0 L 51.57 7.039 L 53.813 13.75 Z M 33.813 13.75 L 31.719 13.75 L 31.719 0 L 36.438 0 L 36.438 1.82 L 33.813 1.82 L 33.813 5.477 L 36.25 5.477 L 36.25 7.305 L 33.813 7.305 L 33.813 13.75 Z M 7.336 13.75 L 5.32 13.75 L 7.281 0 L 10.047 0 L 12.133 13.75 L 10.18 13.75 L 9.852 11.297 L 7.633 11.297 L 7.336 13.75 Z M 16.359 13.75 L 14.273 13.75 L 14.273 1.813 L 12.664 1.813 L 12.664 0 L 17.906 0 L 17.906 1.813 L 16.359 1.813 L 16.359 13.75 Z M 57.859 13.75 L 55.773 13.75 L 55.773 1.813 L 54.164 1.813 L 54.164 0 L 59.406 0 L 59.406 1.813 L 57.859 1.813 L 57.859 13.75 Z M 4.742 13.75 L 0 13.75 L 0 0 L 2.094 0 L 2.094 11.969 L 4.742 11.969 L 4.742 13.75 Z M 42.688 13.75 L 37.945 13.75 L 37.945 0 L 40.039 0 L 40.039 11.969 L 42.688 11.969 L 42.688 13.75 Z M 21.234 13.75 L 19.141 13.75 L 19.141 0 L 21.234 0 L 21.234 13.75 Z M 46.063 13.75 L 43.969 13.75 L 43.969 0 L 46.063 0 L 46.063 13.75 Z M 7.836 9.617 L 9.633 9.617 L 8.711 2.711 L 8.68 2.711 L 7.836 9.617 Z" vector-effect="non-scaling-stroke"/></g></svg>